<mxfile host="app.diagrams.net" modified="2023-11-30T12:46:02.215Z" agent="Mozilla/5.0 (Windows NT 10.0; Win64; x64) AppleWebKit/537.36 (KHTML, like Gecko) Chrome/119.0.0.0 Safari/537.36" version="22.1.5" etag="6VOGahDjsWX4VWTlXOwI" type="github">
  <diagram name="StrÃ¡nka-1" id="SiXDOxofthOkncY1TCa9">
    <mxGraphModel>
      <root>
        <mxCell id="0" />
        <mxCell id="1" parent="0" />
      </root>
    </mxGraphModel>
  </diagram>
</mxfile>
